[img]http://img6.imageshack.us/img6/6072/irondlady.jpg[/img]
[code]
The Iron Lady 2011 CAM READNFO XViD AC3-26K

Imdb: 
http://www.imdb.com/title/tt1007029/

Plot:
A look at the life of Margaret Thatcher, the former Prime Minister of the United Kingdom, with a focus on the price she paid for power.

Sources:
VIDEO - French Video THANKS
AUDIO - INSPIRAL!!

Notes:
VERY NICE CAM!! READNFO VIDEO DOES HAVE SOME BITS MISSING BUT OVER ALL A VERY GOOD CAM GUYZ.. ADDED A FEW FILTERS TO THE VIDEO TO MAKE IT LOOK NICE ENJOY!

Greetz:
Xtreme Encode|FYA|ILLUMANTI|CM8|RX|VISION|HDSCENE|NIGHTMAREZ|xTriLL|DTRG|CRYS|REMIXHD|BIDA|RX|REFILL|INSPiRAL|SIC|ZOMBIESZ|HOPE
To all the people who have helped me :P you know who you are

Anything to offer email us @: 26k@hushmail.me

Video
ID                                       : 0
Format                                   : MPEG-4 Visual
Format profile                           : Advanced Simple@L5
Format settings, BVOP                    : 2
Format settings, QPel                    : No
Format settings, GMC                     : No warppoints
Format settings, Matrix                  : Default (H.263)
Codec ID                                 : XVID
Codec ID/Hint                            : XviD
Duration                                 : 1h 40mn
Bit rate                                 : 1 397 Kbps
Width                                    : 720 pixels
Height                                   : 304 pixels
Display aspect ratio                     : 2.35:1
Frame rate                               : 25.000 fps
Color space                              : YUV
Chroma subsampling                       : 4:2:0
Bit depth                                : 8 bits
Scan type                                : Progressive
Compression mode                         : Lossy
Bits/(Pixel*Frame)                       : 0.255
Stream size                              : 1 000 MiB (91%)
Writing library                          : XviD 63

Audio
ID                                       : 1
Format                                   : AC-3
Format/Info                              : Audio Coding 3
Mode extension                           : CM (complete main)
Codec ID                                 : 2000
Duration                                 : 1h 40mn
Bit rate mode                            : Constant
Bit rate                                 : 128 Kbps
Channel(s)                               : 2 channels
Channel positions                        : Front: L R
Sampling rate                            : 44.1 KHz
Bit depth                                : 16 bits
Compression mode                         : Lossy
Stream size                              : 91.6 MiB (8%)
Alignment                                : Aligned on interleaves
Interleave, duration                     : 35 ms (0.87 video frame)

[/code]
Screens:
[img]http://img854.imageshack.us/img854/8035/vlcsnap2012011720h23m08.png[/img]
[img]http://img832.imageshack.us/img832/4968/vlcsnap2012011720h23m13.png[/img]
[img]http://img828.imageshack.us/img828/84/vlcsnap2012011720h23m18.png[/img]
[img]http://img846.imageshack.us/img846/7053/vlcsnap2012011720h23m37.png[/img]
[img]http://img843.imageshack.us/img843/9921/vlcsnap2012011720h24m09.png[/img]


[img]http://img851.imageshack.us/img851/5503/26ks.jpg[/img]
Thank you smallz for banner!